# Blender 4.2.2 LTS
# www.blender.org
mtllib bastard.mtl
o Körper
v 1.000000 0.704978 -2.231040
v 1.000000 -0.623300 -2.231040
v 1.000000 0.704978 1.000000
v 1.000000 -0.623300 1.000000
v -1.000000 0.704978 -2.231040
v -1.000000 -0.623300 -2.231040
v -1.000000 0.704978 1.000000
v -1.000000 -0.623300 1.000000
v -0.478517 -0.623300 1.000000
v 0.478517 -0.623300 1.000000
vn -1.0000 -0.0000 -0.0000
vn 1.0000 -0.0000 -0.0000
vn -0.0000 -0.0000 1.0000
vn -0.0000 -0.0000 -1.0000
vn -0.0000 1.0000 -0.0000
vn -0.0000 -1.0000 -0.0000
vt 0.000000 0.000000
vt 0.329776 0.000000
vt 0.329776 0.500000
vt -0.000000 0.500000
vt 0.659553 0.500000
vt 0.329776 0.500000
vt 0.329776 -0.000000
vt 0.659553 0.000000
vt 0.659553 0.000000
vt 0.969051 0.000000
vt 0.969051 0.329776
vt 0.888352 0.329776
vt 0.740252 0.329776
vt 0.659553 0.329776
vt 0.969051 0.659553
vt 0.659553 0.659553
vt 0.309498 1.000000
vt 0.000000 1.000000
vt 0.000000 0.500000
vt 0.309498 0.500000
vt 0.390197 0.500000
vt 0.538297 0.500000
vt 0.618996 0.500000
vt 0.618996 1.000000
s 0
usemtl Körper
f 5/1/1 6/2/1 8/3/1 7/4/1
f 2/5/2 1/6/2 3/7/2 4/8/2
f 3/9/3 7/10/3 8/11/3 9/12/3 10/13/3 4/14/3
f 5/14/4 1/11/4 2/15/4 6/16/4
f 1/17/5 5/18/5 7/19/5 3/20/5
f 2/17/6 4/20/6 10/21/6 9/22/6 8/23/6 6/24/6
o Ohren
v -0.771429 0.704978 0.829945
v 0.771429 0.704978 0.829945
v -0.771429 0.704978 0.489836
v 0.771429 0.704978 0.489836
v -0.322597 0.704978 0.829945
v 0.322597 0.704978 0.829945
v -0.322597 0.704978 0.489836
v 0.322597 0.704978 0.489836
v 0.322597 0.986402 0.829945
v 0.771429 0.986402 0.829945
v 0.322597 0.986402 0.489836
v 0.771429 0.986402 0.489836
v -0.771429 0.986402 0.489836
v -0.771429 0.986402 0.829945
v -0.322597 0.986402 0.829945
v -0.322597 0.986402 0.489836
v 0.367428 0.706502 0.785272
v 0.726598 0.706502 0.785272
v -0.726598 0.706502 0.785272
v -0.367428 0.706502 0.785272
v 0.367428 0.931706 0.785272
v 0.726598 0.931706 0.785272
v -0.726598 0.931706 0.785272
v -0.367428 0.931706 0.785272
vn -1.0000 -0.0000 -0.0000
vn -0.0000 -0.0000 -1.0000
vn -0.0000 1.0000 -0.0000
vn -0.7059 -0.0000 0.7084
vn 1.0000 -0.0000 -0.0000
vn 0.7059 -0.0000 0.7084
vn -0.0000 -0.0000 1.0000
vn -0.0000 0.9994 0.0341
vn -0.0000 -0.6326 0.7745
vt 0.784102 0.573650
vt 0.568044 0.573650
vt 0.568044 0.286825
vt 0.784102 0.286825
vt 0.285126 0.286825
vt 0.000000 0.286825
vt 0.000000 0.000000
vt 0.285126 0.000000
vt 0.568044 0.858775
vt 0.568044 0.573650
vt 0.784022 0.573650
vt 0.784022 0.858775
vt 0.784102 0.573650
vt 0.784102 0.286825
vt 0.812482 0.342570
vt 0.812482 0.572097
vt 0.786310 0.286825
vt 0.570251 0.286825
vt 0.570251 0.000000
vt 0.786310 0.000000
vt 0.216059 0.858775
vt 0.000000 0.858775
vt 0.000000 0.571950
vt 0.216059 0.571950
vt 0.784022 0.858775
vt 1.000000 0.573650
vt 1.000000 0.858775
vt 0.432118 0.858775
vt 0.432118 0.571950
vt 0.814689 0.000000
vt 0.814689 0.286825
vt 0.786310 0.285272
vt 0.786310 0.055746
vt 0.284022 0.315304
vt 0.284022 0.543471
vt 0.060828 0.543471
vt 0.060828 0.315304
vt 0.568044 0.315304
vt 0.568044 0.543471
vt 0.344850 0.543471
vt 0.344850 0.315304
vt 0.812482 0.573650
vt 0.812482 0.286825
vt 0.840861 0.342570
vt 0.840861 0.572097
vt 0.460529 0.571950
vt 0.460529 0.857076
vt 0.432118 0.828597
vt 0.432118 0.600430
vt 0.488940 0.571950
vt 0.488940 0.857076
vt 0.460529 0.828597
vt 0.460529 0.600430
vt -0.000000 0.571950
vt -0.000000 0.286825
vt 0.284022 0.571950
vt 0.284022 0.286825
vt 0.843068 0.000000
vt 0.843068 0.286825
vt 0.814689 0.285272
vt 0.814689 0.055746
s 0
usemtl Ohren
f 13/25/7 11/26/7 24/27/7 23/28/7
f 14/29/8 18/30/8 21/31/8 22/32/8
f 22/33/9 21/34/9 19/35/9 20/36/9
f 12/37/10 20/38/10 32/39/10 28/40/10
f 12/41/11 14/42/11 22/43/11 20/44/11
f 18/45/7 16/46/7 19/47/7 21/48/7
f 26/49/9 23/35/9 24/50/9 25/51/9
f 15/52/11 17/45/11 26/48/11 25/53/11
f 17/42/8 13/29/8 23/32/8 26/43/8
f 24/54/12 11/55/12 29/56/12 33/57/12
f 27/58/13 28/59/13 32/60/13 31/61/13
f 29/62/13 30/63/13 34/64/13 33/65/13
f 15/66/10 25/67/10 34/68/10 30/69/10
f 16/70/14 12/71/14 28/72/14 27/73/14
f 11/74/14 15/75/14 30/76/14 29/77/14
f 20/78/15 19/79/15 31/61/15 32/60/15
f 25/80/15 24/81/15 33/65/15 34/64/15
f 19/82/12 16/83/12 27/84/12 31/85/12
o Schnauze
v -0.398922 -0.225414 1.234901
v -0.398922 0.225414 1.234901
v -0.398922 -0.225414 0.994776
v -0.398922 0.225414 0.994776
v 0.398922 -0.225414 1.234901
v 0.398922 0.225414 1.234901
v 0.398922 -0.225414 0.994776
v 0.398922 0.225414 0.994776
vn -1.0000 -0.0000 -0.0000
vn -0.0000 -0.0000 -1.0000
vn 1.0000 -0.0000 -0.0000
vn -0.0000 -0.0000 1.0000
vn -0.0000 -1.0000 -0.0000
vn -0.0000 1.0000 -0.0000
vt 0.333333 0.333333
vt 0.000000 0.333333
vt 0.000000 0.000000
vt 0.333333 0.000000
vt 0.333333 0.666667
vt 0.000000 0.666667
vt 0.000000 0.333333
vt 0.333333 0.333333
vt 0.666667 0.333333
vt 0.333333 0.333333
vt 0.333333 0.000000
vt 0.666667 0.000000
vt 0.666667 0.666667
vt 0.333333 0.666667
vt 0.333333 0.333333
vt 0.666667 0.333333
vt 0.333333 0.666667
vt 0.333333 1.000000
vt 0.000000 1.000000
vt 0.000000 0.666667
vt 0.666667 0.666667
vt 0.666667 1.000000
vt 0.333333 1.000000
vt 0.333333 0.666667
s 0
usemtl Schnauze
f 35/86/16 36/87/16 38/88/16 37/89/16
f 37/90/17 38/91/17 42/92/17 41/93/17
f 41/94/18 42/95/18 40/96/18 39/97/18
f 39/98/19 40/99/19 36/100/19 35/101/19
f 37/102/20 41/103/20 39/104/20 35/105/20
f 42/106/21 38/107/21 36/108/21 40/109/21
o Schwanz
v -0.262930 0.120200 -2.214935
v 0.262930 0.120200 -2.214935
v -0.262930 0.120200 -2.495026
v 0.262930 0.120200 -2.495026
v -0.262930 -0.810429 -2.214935
v 0.262930 -0.810429 -2.214935
v -0.262930 -0.810429 -2.495026
v 0.262930 -0.810429 -2.495026
vn -0.0000 1.0000 -0.0000
vn -0.0000 -0.0000 -1.0000
vn -0.0000 -1.0000 -0.0000
vn -0.0000 -0.0000 1.0000
vn -1.0000 -0.0000 -0.0000
vn 1.0000 -0.0000 -0.0000
vt 0.333333 0.333333
vt 0.000000 0.333333
vt 0.000000 0.000000
vt 0.333333 0.000000
vt 0.333333 0.666667
vt 0.000000 0.666667
vt 0.000000 0.333333
vt 0.333333 0.333333
vt 0.666667 0.333333
vt 0.333333 0.333333
vt 0.333333 0.000000
vt 0.666667 0.000000
vt 0.666667 0.666667
vt 0.333333 0.666667
vt 0.333333 0.333333
vt 0.666667 0.333333
vt 0.333333 0.666667
vt 0.333333 1.000000
vt 0.000000 1.000000
vt 0.000000 0.666667
vt 0.666667 0.666667
vt 0.666667 1.000000
vt 0.333333 1.000000
vt 0.333333 0.666667
s 0
usemtl Schwanz
f 43/110/22 44/111/22 46/112/22 45/113/22
f 45/114/23 46/115/23 50/116/23 49/117/23
f 49/118/24 50/119/24 48/120/24 47/121/24
f 47/122/25 48/123/25 44/124/25 43/125/25
f 45/126/26 49/127/26 47/128/26 43/129/26
f 50/130/27 46/131/27 44/132/27 48/133/27
o Beine
v -0.841530 -0.623300 0.836265
v 0.841530 -0.623300 0.836265
v -0.841530 -0.623300 0.503337
v 0.841530 -0.623300 0.503337
v -0.841530 -0.623300 -2.061509
v 0.841530 -0.623300 -2.061509
v -0.841530 -0.623300 -1.728624
v 0.841530 -0.623300 -1.728624
v -0.478517 -0.623300 0.836265
v 0.478517 -0.623300 0.836265
v -0.478517 -0.623300 0.503337
v 0.478517 -0.623300 0.503337
v -0.478517 -0.623300 -2.061509
v 0.478517 -0.623300 -2.061509
v -0.478517 -0.623300 -1.728624
v 0.478517 -0.623300 -1.728624
v -0.841530 -0.902227 0.836265
v -0.841530 -0.902227 0.503337
v -0.478517 -0.902227 0.836265
v -0.478517 -0.902227 0.503337
v 0.478517 -0.902227 0.836265
v 0.841530 -0.902227 0.836265
v 0.478517 -0.902227 0.503337
v 0.841530 -0.902227 0.503337
v 0.478517 -0.902227 -2.061509
v 0.841530 -0.902227 -2.061509
v 0.478517 -0.902227 -1.728624
v 0.841530 -0.902227 -1.728624
v -0.841530 -0.902227 -1.728624
v -0.841530 -0.902227 -2.061509
v -0.478517 -0.902227 -2.061509
v -0.478517 -0.902227 -1.728624
vn -1.0000 -0.0000 -0.0000
vn -0.0000 -0.0000 -1.0000
vn -0.0000 -1.0000 -0.0000
vn -0.0000 -0.0000 1.0000
vn 1.0000 -0.0000 -0.0000
vt 0.777588 0.500000
vt 0.963557 0.500000
vt 0.963557 0.750000
vt 0.777588 0.750000
vt 0.405601 0.500000
vt 0.591594 0.500000
vt 0.591594 0.750000
vt 0.405601 0.750000
vt -0.000000 0.000000
vt 0.202801 0.000000
vt 0.202801 0.250000
vt -0.000000 0.250000
vt 0.794395 0.000000
vt 0.980364 0.000000
vt 0.980364 0.250000
vt 0.794395 0.250000
vt 0.185969 0.952801
vt 0.185969 0.750000
vt 0.371962 0.750000
vt 0.371962 0.952801
vt 0.202801 0.000000
vt 0.405601 0.000000
vt 0.405601 0.250000
vt 0.202801 0.250000
vt 0.202801 0.500000
vt -0.000000 0.500000
vt 0.591594 0.500000
vt 0.777588 0.500000
vt 0.777588 0.750000
vt 0.591594 0.750000
vt 0.371962 0.952801
vt 0.371962 0.750000
vt 0.557956 0.750000
vt 0.557956 0.952801
vt 0.405601 0.500000
vt 0.202801 0.500000
vt 0.608402 0.000000
vt 0.608402 0.250000
vt 0.794395 0.250000
vt 0.794395 0.500000
vt 0.608402 0.500000
vt 0.557956 0.952801
vt 0.557956 0.750000
vt 0.743924 0.750000
vt 0.743924 0.952801
vt 0.608402 0.000000
vt 0.608402 0.250000
vt 0.794395 0.250000
vt 0.980364 0.250000
vt 0.980364 0.500000
vt 0.794395 0.500000
vt 0.405601 0.250000
vt 0.608402 0.500000
vt 0.743924 0.952801
vt 0.743924 0.750000
vt 0.929893 0.750000
vt 0.929893 0.952801
vt 0.000000 0.500000
vt 0.202801 0.500000
vt 0.202801 0.750000
vt 0.000000 0.750000
vt 0.185969 0.750000
vt 0.185969 1.000000
vt 0.000000 1.000000
vt 0.405601 0.750000
s 0
usemtl Beine
f 57/134/28 55/135/28 80/136/28 79/137/28
f 51/138/28 53/139/28 68/140/28 67/141/28
f 62/142/29 54/143/29 74/144/29 73/145/29
f 66/146/28 64/147/28 75/148/28 77/149/28
f 69/150/30 67/151/30 68/152/30 70/153/30
f 53/154/29 61/155/29 70/156/29 68/157/29
f 59/145/31 51/144/31 67/158/31 69/159/31
f 61/160/32 59/161/32 69/162/32 70/163/32
f 72/164/30 71/165/30 73/166/30 74/167/30
f 52/157/31 60/156/31 71/168/31 72/169/31
f 60/170/28 62/146/28 73/149/28 71/171/28
f 54/171/32 52/172/32 72/173/32 74/174/32
f 78/175/30 77/176/30 75/177/30 76/178/30
f 58/155/31 66/179/31 77/180/31 78/156/31
f 56/181/32 58/182/32 78/183/32 76/184/32
f 64/185/29 56/180/29 76/186/29 75/138/29
f 82/187/30 79/188/30 80/189/30 81/190/30
f 55/191/29 63/192/29 81/193/29 80/194/29
f 63/194/32 65/195/32 82/196/32 81/197/32
f 65/192/31 57/168/31 79/198/31 82/193/31
