# Blender 4.2.2 LTS
# www.blender.org
mtllib bäääääär.mtl
o Körper
v 1.663344 1.663344 -4.351153
v 1.663344 -1.663344 -4.351153
v 1.663344 1.663344 1.799438
v 1.663344 -1.663344 1.799438
v -1.663344 1.663344 -4.351153
v -1.663344 -1.663344 -4.351153
v -1.663344 1.663344 1.799438
v -1.663344 -1.663344 1.799438
vn -0.0000 -1.0000 -0.0000
vn -1.0000 -0.0000 -0.0000
vn 1.0000 -0.0000 -0.0000
vn -0.0000 -0.0000 -1.0000
vn -0.0000 -0.0000 1.0000
vn -0.0000 1.0000 -0.0000
vt 0.000000 0.500000
vt 0.270436 0.500000
vt 0.270436 1.000000
vt 0.000000 1.000000
vt 0.000000 0.000000
vt 0.270436 0.000000
vt 0.270436 0.500000
vt 0.000000 0.500000
vt 0.540873 0.500000
vt 0.270436 -0.000000
vt 0.540873 0.000000
vt 0.540873 0.270436
vt 0.540873 -0.000000
vt 0.811309 0.000000
vt 0.811309 0.270436
vt 0.811309 0.270436
vt 0.811309 0.540873
vt 0.540873 0.540873
vt 0.540873 0.270436
vt 0.540873 1.000000
vt 0.540873 0.500000
s 0
usemtl Körper
f 4/1/1 8/2/1 6/3/1 2/4/1
f 5/5/2 6/6/2 8/7/2 7/8/2
f 2/9/3 1/2/3 3/10/3 4/11/3
f 5/12/4 1/13/4 2/14/4 6/15/4
f 8/16/5 4/17/5 3/18/5 7/19/5
f 1/20/6 5/3/6 7/2/6 3/21/6
o Ohren
v -1.380608 1.684734 1.512030
v 1.380608 1.684734 1.512030
v -1.380608 1.684734 0.988733
v 1.380608 1.684734 0.988733
v -0.481209 1.684734 1.512030
v 0.481209 1.684734 1.512030
v -0.481209 1.684734 0.988733
v 0.481209 1.684734 0.988733
v -1.380608 1.684734 0.988733
v -1.380608 1.684734 1.512030
v -0.481209 1.684734 1.512030
v -0.481209 1.684734 0.988733
v 0.481209 1.684734 1.512030
v 1.380608 1.684734 1.512030
v 0.481209 1.684734 0.988733
v 1.380608 1.684734 0.988733
v -1.380608 2.195072 0.988733
v -1.380608 2.195072 1.512030
v -0.481209 2.195072 1.512030
v -0.481209 2.195072 0.988733
v 0.481209 2.195072 1.512030
v 1.380608 2.195072 1.512030
v 0.481209 2.195072 0.988733
v 1.380608 2.195072 0.988733
v 0.581127 1.670550 1.402938
v 1.280690 1.670550 1.402938
v 0.581127 2.067496 1.402938
v 1.280690 2.067496 1.402938
v -1.280690 1.670550 1.402938
v -0.581127 1.670550 1.402938
v -1.280690 2.067496 1.402938
v -0.581127 2.067496 1.402938
vn -0.0000 1.0000 -0.0000
vn -0.7374 -0.0000 0.6754
vn 1.0000 -0.0000 -0.0000
vn -0.0000 0.9917 -0.1289
vn -0.0000 -0.0000 -1.0000
vn -1.0000 -0.0000 -0.0000
vn -0.0000 -0.0000 1.0000
vn -0.0000 -0.6499 0.7600
vn 0.7374 -0.0000 0.6754
vt 0.224766 0.387118
vt 0.918544 0.606777
vt 0.918544 0.387118
vt 0.965499 0.442029
vt 0.965499 0.612882
vt 0.871292 0.387118
vt 0.871292 0.612355
vt 0.651634 0.612355
vt 0.651634 0.387118
vt 0.224766 0.000000
vt 0.224766 0.387118
vt 0.000000 0.387118
vt 0.000000 0.000000
vt 0.449533 -0.000000
vt 0.449533 0.387118
vt 0.224766 0.387118
vt 0.224766 -0.000000
vt 0.871292 0.612355
vt 0.871292 0.837592
vt 0.651634 0.837591
vt 0.651634 0.612355
vt 0.888850 0.387118
vt 0.888850 -0.000000
vt 0.936102 0.043007
vt 0.936102 0.344111
vt 0.669191 0.000000
vt 0.669191 0.387118
vt 0.449533 0.387118
vt 0.449533 0.000000
vt 0.888850 0.000000
vt 0.888850 0.225237
vt 0.669191 0.225237
vt 0.669191 0.000000
vt 0.219659 0.774236
vt 0.219659 0.999473
vt 0.000000 0.999473
vt 0.000000 0.774236
vt 0.219659 0.387118
vt 0.219659 0.774236
vt 0.000000 0.774236
vt 0.000000 0.387118
vt 0.421759 0.430125
vt 0.421759 0.731229
vt 0.291908 0.731229
vt 0.291908 0.430125
vt 0.918544 0.832541
vt 0.918544 0.612882
vt 0.965499 0.667793
vt 0.965499 0.838646
vt 0.219659 0.774236
vt 0.219659 0.387118
vt 0.983057 -0.000000
vt 0.983057 0.219659
vt 0.936102 0.225764
vt 0.936102 0.054911
vt 0.651633 0.430125
vt 0.651633 0.731229
vt 0.521782 0.731229
vt 0.521782 0.430125
vt 0.871292 0.774236
vt 0.871292 0.387118
vt 0.918544 0.430125
vt 0.918544 0.731229
vt 0.449533 0.774236
vt 0.449533 0.387118
vt 0.266614 0.774236
vt 0.266614 0.993895
vt 0.219659 1.000000
vt 0.219659 0.829147
s 0
usemtl Ohren
f 11/22/7 9/22/7 18/22/7 17/22/7
f 16/22/7 14/22/7 21/22/7 23/22/7
f 19/23/8 27/24/8 40/25/8 38/26/8
f 13/22/7 15/22/7 20/22/7 19/22/7
f 15/22/7 11/22/7 17/22/7 20/22/7
f 9/22/7 13/22/7 19/22/7 18/22/7
f 19/27/9 20/28/9 28/29/9 27/30/9
f 12/22/7 16/22/7 23/22/7 24/22/7
f 14/22/7 10/22/7 22/22/7 21/22/7
f 10/22/7 12/22/7 24/22/7 22/22/7
f 28/31/7 25/32/7 26/33/7 27/34/7
f 32/35/7 31/36/7 29/37/7 30/38/7
f 22/39/9 24/40/9 32/41/9 30/42/9
f 21/43/10 22/44/10 34/45/10 33/46/10
f 20/47/11 17/48/11 25/49/11 28/50/11
f 23/51/12 21/52/12 29/53/12 31/54/12
f 17/55/12 18/56/12 26/57/12 25/58/12
f 24/59/11 23/60/11 31/61/11 32/62/11
f 33/63/13 34/64/13 36/65/13 35/66/13
f 22/67/8 30/68/8 36/69/8 34/70/8
f 30/71/14 29/72/14 35/66/14 36/65/14
f 29/73/15 21/74/15 33/75/15 35/76/15
f 37/77/13 38/78/13 40/79/13 39/80/13
f 18/81/10 19/82/10 38/83/10 37/84/10
f 27/85/14 26/86/14 39/80/14 40/79/14
f 26/87/15 18/88/15 37/89/15 39/90/15
o Schnauze
v -0.784873 -0.718490 2.330346
v -0.784873 0.262364 2.330346
v -0.784873 -0.718490 1.775025
v -0.784873 0.262364 1.775025
v 0.784873 -0.718490 2.330346
v 0.784873 0.262364 2.330346
v 0.784873 -0.718490 1.775025
v 0.784873 0.262364 1.775025
vn -1.0000 -0.0000 -0.0000
vn -0.0000 -0.0000 -1.0000
vn 1.0000 -0.0000 -0.0000
vn -0.0000 -0.0000 1.0000
vn -0.0000 -1.0000 -0.0000
vn -0.0000 1.0000 -0.0000
vt 0.333333 0.333333
vt 0.000000 0.333333
vt 0.000000 0.000000
vt 0.333333 0.000000
vt 0.333333 0.666667
vt 0.000000 0.666667
vt 0.000000 0.333333
vt 0.333333 0.333333
vt 0.666667 0.333333
vt 0.333333 0.333333
vt 0.333333 0.000000
vt 0.666667 0.000000
vt 0.666667 0.666667
vt 0.333333 0.666667
vt 0.333333 0.333333
vt 0.666667 0.333333
vt 0.333333 0.666667
vt 0.333333 1.000000
vt 0.000000 1.000000
vt 0.000000 0.666667
vt 0.666667 0.666667
vt 0.666667 1.000000
vt 0.333333 1.000000
vt 0.333333 0.666667
s 0
usemtl Schnauze
f 41/91/16 42/92/16 44/93/16 43/94/16
f 43/95/17 44/96/17 48/97/17 47/98/17
f 47/99/18 48/100/18 46/101/18 45/102/18
f 45/103/19 46/104/19 42/105/19 41/106/19
f 43/107/20 47/108/20 45/109/20 41/110/20
f 48/111/21 44/112/21 42/113/21 46/114/21
o Beine
v 1.301255 -1.663344 1.403719
v -1.301255 -1.663344 1.403719
v 1.301255 -1.663344 0.803309
v -1.301255 -1.663344 0.803309
v 1.301255 -1.663344 -3.921615
v -1.301255 -1.663344 -3.921615
v 1.301255 -1.663344 -3.322521
v -1.301255 -1.663344 -3.322521
v 0.559311 -1.663344 1.403719
v -0.559311 -1.663344 1.403719
v 0.559311 -1.663344 0.803309
v -0.559311 -1.663344 0.803309
v 0.559311 -1.663344 -3.921615
v -0.559311 -1.663344 -3.921615
v 0.559311 -1.663344 -3.322521
v -0.559311 -1.663344 -3.322521
v -0.559311 -2.343793 1.403719
v -1.301255 -2.343793 1.403719
v -0.559311 -2.343793 0.803309
v -1.301255 -2.343793 0.803309
v -0.559311 -2.343793 -3.921615
v -1.301255 -2.343793 -3.921615
v -0.559311 -2.343793 -3.322521
v -1.301255 -2.343793 -3.322521
v 1.301255 -2.343793 -3.322521
v 1.301255 -2.343793 -3.921615
v 1.301255 -2.343793 1.403719
v 1.301255 -2.343793 0.803309
v 0.559311 -2.343793 1.403719
v 0.559311 -2.343793 0.803309
v 0.559311 -2.343793 -3.921615
v 0.559311 -2.343793 -3.322521
vn -1.0000 -0.0000 -0.0000
vn -0.0000 -0.0000 -1.0000
vn -0.0000 -1.0000 -0.0000
vn 1.0000 -0.0000 -0.0000
vn -0.0000 -0.0000 1.0000
vt 0.000000 0.687083
vt 0.185338 0.687083
vt 0.185338 0.897129
vt 0.000000 0.897129
vt 0.420091 0.229028
vt 0.420091 -0.000000
vt 0.630136 0.000000
vt 0.630136 0.229028
vt 0.741353 0.687083
vt 0.926285 0.687083
vt 0.926285 0.897129
vt 0.741353 0.897129
vt 0.000000 0.229028
vt 0.000000 0.000000
vt 0.210045 0.000000
vt 0.210045 0.229028
vt 0.815068 0.229028
vt 0.630136 0.229028
vt 0.630136 -0.000000
vt 0.815068 0.000000
vt 0.605429 0.687083
vt 0.420091 0.687083
vt 0.420091 0.458056
vt 0.605429 0.458056
vt 0.790767 0.687083
vt 0.605429 0.458056
vt 0.790767 0.458056
vt 0.815068 0.458055
vt 0.630136 0.458055
vt 0.630136 0.229028
vt 0.815068 0.229028
vt 0.790768 0.458055
vt 0.975699 0.458055
vt 0.975699 0.668101
vt 0.790768 0.668101
vt 0.370676 0.687083
vt 0.370676 0.897129
vt 0.210045 0.229028
vt 0.210046 0.000000
vt 0.420091 0.000000
vt 0.420091 0.229028
vt 0.000000 0.458055
vt 0.000000 0.229028
vt 0.210045 0.229028
vt 0.210045 0.458056
vt 0.556015 0.687083
vt 0.556015 0.897129
vt 0.210045 0.458055
vt 0.210046 0.229028
vt 0.420091 0.229028
vt 0.420091 0.458055
vt 0.815068 -0.000000
vt 1.000000 -0.000000
vt 1.000000 0.210045
vt 0.815068 0.210045
vt 0.556015 0.687083
vt 0.741353 0.687083
vt 0.741353 0.897129
vt 0.556015 0.897129
vt 0.420091 0.458055
vt 0.420091 0.229028
vt 0.630136 0.229028
vt 0.815068 0.210045
vt 1.000000 0.210045
vt 1.000000 0.420091
vt 0.815068 0.420091
vt 0.000000 0.687083
vt 0.210045 0.687083
vt 0.210046 0.687083
vt 0.210046 0.458056
vt 0.420091 0.458056
vt 0.420091 0.687083
s 0
usemtl Beine
f 57/115/22 59/116/22 78/117/22 77/118/22
f 52/119/23 60/120/23 67/121/23 68/122/23
f 63/123/22 61/124/22 79/125/22 80/126/22
f 61/127/23 53/128/23 74/129/23 79/130/23
f 69/131/24 71/132/24 72/133/24 70/134/24
f 67/135/24 65/136/24 66/137/24 68/138/24
f 76/139/24 75/135/24 77/140/24 78/141/24
f 74/142/24 73/143/24 80/144/24 79/145/24
f 62/146/25 64/147/25 71/148/25 69/149/25
f 60/116/25 58/150/25 65/151/25 67/117/25
f 59/152/23 51/153/23 76/154/23 78/155/23
f 64/156/26 56/157/26 72/158/26 71/159/26
f 51/150/25 49/160/25 75/161/25 76/151/25
f 58/162/26 50/163/26 66/164/26 65/165/26
f 53/166/25 55/167/25 73/168/25 74/169/25
f 50/170/22 52/171/22 68/172/22 66/173/22
f 54/174/23 62/175/23 69/176/23 70/143/23
f 56/177/22 54/178/22 70/179/22 72/180/22
f 55/181/26 63/156/26 80/159/26 73/182/26
f 49/183/26 57/184/26 77/185/26 75/186/26
o Schwanz
v -0.300511 -0.911467 -4.300238
v -0.300511 -0.310444 -4.300238
v -0.300511 -0.911467 -4.732681
v -0.300511 -0.310444 -4.732681
v 0.300511 -0.911467 -4.300238
v 0.300511 -0.310444 -4.300238
v 0.300511 -0.911467 -4.732681
v 0.300511 -0.310444 -4.732681
vn -1.0000 -0.0000 -0.0000
vn -0.0000 -0.0000 -1.0000
vn 1.0000 -0.0000 -0.0000
vn -0.0000 -0.0000 1.0000
vn -0.0000 -1.0000 -0.0000
vn -0.0000 1.0000 -0.0000
vt 0.333333 0.333333
vt 0.000000 0.333333
vt 0.000000 0.000000
vt 0.333333 0.000000
vt 0.333333 0.666667
vt 0.000000 0.666667
vt 0.000000 0.333333
vt 0.333333 0.333333
vt 0.666667 0.333333
vt 0.333333 0.333333
vt 0.333333 0.000000
vt 0.666667 0.000000
vt 0.666667 0.666667
vt 0.333333 0.666667
vt 0.333333 0.333333
vt 0.666667 0.333333
vt 0.333333 0.666667
vt 0.333333 1.000000
vt 0.000000 1.000000
vt 0.000000 0.666667
vt 0.666667 0.666667
vt 0.666667 1.000000
vt 0.333333 1.000000
vt 0.333333 0.666667
s 0
usemtl Schwanz
f 81/187/27 82/188/27 84/189/27 83/190/27
f 83/191/28 84/192/28 88/193/28 87/194/28
f 87/195/29 88/196/29 86/197/29 85/198/29
f 85/199/30 86/200/30 82/201/30 81/202/30
f 83/203/31 87/204/31 85/205/31 81/206/31
f 88/207/32 84/208/32 82/209/32 86/210/32
