# Blender 4.2.2 LTS
# www.blender.org
mtllib the sun is a deadly laser - Kopie.mtl
o Box
v 1.230182 1.230182 -1.230182
v 1.230182 -1.230182 -1.230182
v 1.230182 1.230182 1.230182
v 1.230182 -1.230182 1.230182
v -1.230182 1.230182 -1.230182
v -1.230182 -1.230182 -1.230182
v -1.230182 1.230182 1.230182
v -1.230182 -1.230182 1.230182
vn -0.0000 1.0000 -0.0000
vn -0.0000 -0.0000 1.0000
vn -1.0000 -0.0000 -0.0000
vn -0.0000 -1.0000 -0.0000
vn 1.0000 -0.0000 -0.0000
vn -0.0000 -0.0000 -1.0000
vt 0.333333 0.000000
vt 0.333333 0.333333
vt 0.000000 0.333333
vt 0.000000 0.000000
vt 0.333333 0.666667
vt 0.000000 0.666667
vt 0.000000 0.333333
vt 0.333333 0.333333
vt 0.666667 0.333333
vt 0.333333 0.333333
vt 0.333333 0.000000
vt 0.666667 0.000000
vt 0.666667 0.333333
vt 0.666667 0.666667
vt 0.333333 0.666667
vt 0.333333 0.333333
vt 0.333333 1.000000
vt 0.000000 1.000000
vt 0.000000 0.666667
vt 0.333333 0.666667
vt 0.666667 1.000000
vt 0.333333 1.000000
vt 0.333333 0.666667
vt 0.666667 0.666667
s 0
usemtl Box
f 1/1/1 5/2/1 7/3/1 3/4/1
f 4/5/2 3/6/2 7/7/2 8/8/2
f 8/9/3 7/10/3 5/11/3 6/12/3
f 6/13/4 2/14/4 4/15/4 8/16/4
f 2/17/5 1/18/5 3/19/5 4/20/5
f 6/21/6 5/22/6 1/23/6 2/24/6
o Räder1
v 1.436400 -0.288725 -1.585361
v 1.436400 -1.626637 -1.585361
v 1.436400 -0.288725 -0.247449
v 1.436400 -1.626637 -0.247449
v 1.202828 -0.288725 -1.585361
v 1.202828 -1.626637 -1.585361
v 1.202828 -0.288725 -0.247449
v 1.202828 -1.626637 -0.247449
v 1.202828 -1.065675 -0.808410
v 1.202828 -0.849686 -1.024400
v 1.202828 -0.849686 -0.808410
v 1.202828 -1.065675 -1.024400
v 1.436400 -1.065675 -1.024400
v 1.436400 -0.849686 -0.808410
v 1.436400 -0.849686 -1.024400
v 1.436400 -1.065675 -0.808410
v -1.436400 -0.288725 -1.585361
v -1.436400 -1.626637 -1.585361
v -1.436400 -0.288725 -0.247449
v -1.436400 -1.626637 -0.247449
v -1.202828 -0.288725 -1.585361
v -1.202828 -1.626637 -1.585361
v -1.202828 -0.288725 -0.247449
v -1.202828 -1.626637 -0.247449
v -1.202828 -1.065675 -0.808410
v -1.202828 -0.849686 -1.024399
v -1.202828 -0.849686 -0.808410
v -1.202828 -1.065675 -1.024399
v -1.436400 -1.065675 -1.024399
v -1.436400 -0.849686 -0.808410
v -1.436400 -0.849686 -1.024399
v -1.436400 -1.065675 -0.808410
vn -0.0000 1.0000 -0.0000
vn -0.0000 -0.0000 1.0000
vn -1.0000 -0.0000 -0.0000
vn -0.0000 -1.0000 -0.0000
vn 1.0000 -0.0000 -0.0000
vn -0.0000 -0.0000 -1.0000
vt 0.750000 0.500000
vt 0.500000 0.500000
vt 0.500000 0.250000
vt 0.750000 0.250000
vt 0.500000 0.750000
vt 0.500000 0.500000
vt 0.750000 0.500000
vt 0.750000 0.750000
vt 0.354820 0.604820
vt 0.250000 0.500000
vt 0.500000 0.500000
vt 0.500000 0.750000
vt 0.395180 0.645180
vt 0.395180 0.604820
vt 0.250000 0.750000
vt 0.354820 0.645180
vt 0.250000 0.750000
vt 0.250000 1.000000
vt 0.000000 1.000000
vt 0.000000 0.750000
vt 0.250000 0.500000
vt 0.250000 0.250000
vt 0.500000 0.250000
vt 0.500000 0.500000
vt 0.395180 0.395180
vt 0.395180 0.354820
vt 0.354820 0.354820
vt 0.354820 0.395180
vt 0.250000 0.250000
vt 0.250000 -0.000000
vt 0.500000 0.000000
vt 0.500000 0.250000
vt 0.790359 0.500000
vt 0.790359 0.750000
vt 0.750000 0.750000
vt 0.750000 0.500000
vt 0.830719 0.250000
vt 0.830719 0.500000
vt 0.790359 0.500000
vt 0.790359 0.250000
vt 0.871078 0.750000
vt 0.830719 0.750000
vt 0.830719 0.500000
vt 0.871078 0.500000
vt 0.790359 0.500000
vt 0.830719 0.500000
vt 0.750000 0.250000
vt 0.750000 -0.000000
vt 1.000000 -0.000000
vt 1.000000 0.250000
vt 0.250000 0.000000
vt 0.250000 0.250000
vt 0.000000 0.250000
vt 0.000000 0.000000
vt 0.104820 0.354820
vt 0.104820 0.395180
vt 0.145180 0.395180
vt 0.250000 0.500000
vt 0.000000 0.500000
vt 0.145180 0.354820
vt 0.500000 1.000000
vt 0.500000 0.750000
vt 0.750000 -0.000000
vt 0.645180 0.104820
vt 0.604820 0.104820
vt 0.604820 0.145180
vt 0.645180 0.145180
vt 0.750000 0.250000
vt 0.500000 0.250000
vt 0.500000 -0.000000
vt 0.250000 0.750000
vt 0.000000 0.750000
vt 0.911438 0.500000
vt 0.871078 0.500000
vt 0.871078 0.250000
vt 0.911438 0.250000
vt 0.911437 0.750000
vt 0.911437 0.500000
vt 0.871078 0.250000
vt 0.871078 0.500000
vt 0.750000 0.250000
vt 0.790359 0.250000
s 0
usemtl Räder1
f 9/25/7 13/26/7 15/27/7 11/28/7
f 12/29/8 11/30/8 15/31/8 16/32/8
f 19/33/9 15/34/9 13/35/9 14/36/9 20/37/9 18/38/9
f 20/37/9 14/36/9 16/39/9 15/34/9 19/33/9 17/40/9
f 14/41/10 10/42/10 12/43/10 16/44/10
f 10/45/11 9/46/11 11/47/11 12/48/11 24/49/11 22/50/11 23/51/11 21/52/11
f 24/49/11 12/48/11 10/45/11 21/52/11
f 14/53/12 13/54/12 9/55/12 10/56/12
f 18/57/10 23/58/10 22/59/10 19/60/10
f 24/61/12 17/62/12 19/63/12 22/64/12
f 20/65/7 17/66/7 24/67/7 21/68/7
f 18/69/8 20/70/8 21/66/8 23/58/8
f 25/71/7 27/72/7 31/73/7 29/74/7
f 28/75/8 32/76/8 31/77/8 27/78/8
f 35/79/11 34/80/11 36/81/11 30/82/11 29/83/11 31/77/11
f 36/81/11 33/84/11 35/79/11 31/77/11 32/76/11 30/82/11
f 30/85/10 32/42/10 28/41/10 26/86/10
f 26/87/9 37/88/9 39/89/9 38/90/9 40/91/9 28/92/9 27/93/9 25/94/9
f 40/91/9 37/88/9 26/87/9 28/92/9
f 30/82/12 26/95/12 25/96/12 29/83/12
f 34/97/10 35/98/10 38/99/10 39/100/10
f 40/101/12 38/65/12 35/68/12 33/102/12
f 36/103/7 37/104/7 40/62/7 33/61/7
f 34/60/8 39/105/8 37/106/8 36/69/8
o Räder2
v 1.436400 -0.288725 0.198879
v 1.436400 -1.626637 0.198879
v 1.436400 -0.288725 1.536791
v 1.436400 -1.626637 1.536791
v 1.202828 -0.288725 0.198879
v 1.202828 -1.626637 0.198879
v 1.202828 -0.288725 1.536791
v 1.202828 -1.626637 1.536791
v 1.202828 -1.065675 0.975830
v 1.202828 -0.849686 0.759841
v 1.202828 -0.849686 0.975830
v 1.202828 -1.065675 0.759841
v 1.436400 -1.065675 0.759841
v 1.436400 -0.849686 0.975830
v 1.436400 -0.849686 0.759841
v 1.436400 -1.065675 0.975830
v -1.436400 -0.288725 0.198879
v -1.436400 -1.626637 0.198879
v -1.436400 -0.288725 1.536791
v -1.436400 -1.626637 1.536791
v -1.202828 -0.288725 0.198879
v -1.202828 -1.626637 0.198879
v -1.202828 -0.288725 1.536791
v -1.202828 -1.626637 1.536791
v -1.202828 -1.065675 0.975830
v -1.202828 -0.849686 0.759841
v -1.202828 -0.849686 0.975830
v -1.202828 -1.065675 0.759841
v -1.436400 -1.065675 0.759841
v -1.436400 -0.849686 0.975830
v -1.436400 -0.849686 0.759841
v -1.436400 -1.065675 0.975830
vn -0.0000 1.0000 -0.0000
vn -0.0000 -0.0000 1.0000
vn -1.0000 -0.0000 -0.0000
vn -0.0000 -1.0000 -0.0000
vn 1.0000 -0.0000 -0.0000
vn -0.0000 -0.0000 -1.0000
vt 0.750000 0.250000
vt 0.500000 0.250000
vt 0.500000 -0.000000
vt 0.750000 0.000000
vt 0.250000 0.750000
vt 0.250000 0.500000
vt 0.500000 0.500000
vt 0.500000 0.750000
vt 0.604820 0.354820
vt 0.500000 0.250000
vt 0.750000 0.250000
vt 0.750000 0.500000
vt 0.645180 0.395180
vt 0.645180 0.354820
vt 0.604820 0.395180
vt 0.750000 0.500000
vt 0.750000 0.750000
vt 0.500000 0.750000
vt 0.500000 0.500000
vt 0.250000 0.500000
vt 0.250000 0.250000
vt 0.500000 0.250000
vt 0.500000 0.500000
vt 0.395180 0.395180
vt 0.395180 0.354820
vt 0.354820 0.354820
vt 0.354820 0.395180
vt 0.250000 0.250000
vt 0.250000 -0.000000
vt 0.500000 0.000000
vt 0.500000 0.250000
vt 0.790359 0.500000
vt 0.790359 0.750000
vt 0.750000 0.750000
vt 0.750000 0.500000
vt 0.830719 0.250000
vt 0.830719 0.500000
vt 0.790359 0.500000
vt 0.790359 0.250000
vt 0.871078 0.500000
vt 0.830719 0.500000
vt 0.830719 0.250000
vt 0.871078 0.250000
vt 0.790359 0.500000
vt 0.830719 0.500000
vt 0.830719 0.750000
vt 0.790359 0.750000
vt -0.000000 1.000000
vt 0.000000 0.750000
vt 0.250000 0.750000
vt 0.250000 1.000000
vt 0.250000 0.000000
vt 0.250000 0.250000
vt 0.000000 0.250000
vt 0.000000 0.000000
vt 0.104820 0.354820
vt 0.104820 0.395180
vt 0.145180 0.395180
vt 0.250000 0.500000
vt 0.000000 0.500000
vt 0.145180 0.354820
vt 1.000000 0.250000
vt 0.750000 0.250000
vt 0.750000 0.000000
vt 1.000000 0.000000
vt 0.250000 0.750000
vt 0.354820 0.854820
vt 0.354820 0.895180
vt 0.395180 0.895180
vt 0.395180 0.854820
vt 0.500000 0.750000
vt 0.500000 1.000000
vt 0.250000 0.750000
vt 0.000000 0.750000
vt 0.871078 0.750000
vt 0.830719 0.750000
vt 0.830719 0.500000
vt 0.871078 0.500000
vt 0.911438 0.500000
vt 0.911438 0.250000
vt 0.911438 0.500000
vt 0.911438 0.750000
vt 0.750000 0.250000
vt 0.790359 0.250000
vt 0.790359 0.500000
s 0
usemtl Räder2
f 41/107/13 45/108/13 47/109/13 43/110/13
f 44/111/14 43/112/14 47/113/14 48/114/14
f 51/115/15 47/116/15 45/117/15 46/118/15 52/119/15 50/120/15
f 52/119/15 46/118/15 48/113/15 47/116/15 51/115/15 49/121/15
f 46/122/16 42/123/16 44/124/16 48/125/16
f 42/126/17 41/127/17 43/128/17 44/129/17 56/130/17 54/131/17 55/132/17 53/133/17
f 56/130/17 44/129/17 42/126/17 53/133/17
f 46/134/18 45/135/18 41/136/18 42/137/18
f 50/138/16 55/139/16 54/140/16 51/141/16
f 56/142/18 49/143/18 51/144/18 54/145/18
f 52/146/13 49/147/13 56/148/13 53/149/13
f 50/150/14 52/151/14 53/152/14 55/153/14
f 57/154/13 59/155/13 63/156/13 61/157/13
f 60/158/14 64/159/14 63/160/14 59/161/14
f 67/162/17 66/163/17 68/164/17 62/165/17 61/166/17 63/160/17
f 68/164/17 65/167/17 67/162/17 63/160/17 64/159/17 62/165/17
f 62/168/16 64/169/16 60/170/16 58/171/16
f 58/172/15 69/173/15 71/174/15 70/175/15 72/176/15 60/177/15 59/178/15 57/157/15
f 72/176/15 69/173/15 58/172/15 60/177/15
f 62/165/18 58/179/18 57/180/18 61/166/18
f 66/181/16 67/182/16 70/183/16 71/184/16
f 72/185/18 70/146/18 67/149/18 65/186/18
f 68/187/13 69/188/13 72/181/13 65/184/13
f 66/122/14 71/189/14 69/190/14 68/191/14
o Stab
v -0.137777 -0.137777 3.989938
v -0.137777 0.137777 3.989938
v -0.137777 -0.137777 1.115905
v -0.137777 0.137777 1.115905
v 0.137777 -0.137777 3.989938
v 0.137777 0.137777 3.989938
v 0.137777 -0.137777 1.115905
v 0.137777 0.137777 1.115905
vn -1.0000 -0.0000 -0.0000
vn -0.0000 -0.0000 -1.0000
vn 1.0000 -0.0000 -0.0000
vn -0.0000 -0.0000 1.0000
vn -0.0000 -1.0000 -0.0000
vn -0.0000 1.0000 -0.0000
vt 0.333333 0.333333
vt 0.000000 0.333333
vt 0.000000 0.000000
vt 0.333333 0.000000
vt 0.333333 0.666667
vt 0.000000 0.666667
vt 0.000000 0.333333
vt 0.333333 0.333333
vt 0.666667 0.333333
vt 0.333333 0.333333
vt 0.333333 0.000000
vt 0.666667 0.000000
vt 0.666667 0.666667
vt 0.333333 0.666667
vt 0.333333 0.333333
vt 0.666667 0.333333
vt 0.333333 0.666667
vt 0.333333 1.000000
vt 0.000000 1.000000
vt 0.000000 0.666667
vt 0.666667 0.666667
vt 0.666667 1.000000
vt 0.333333 1.000000
vt 0.333333 0.666667
s 0
usemtl Stab
f 73/192/19 74/193/19 76/194/19 75/195/19
f 75/196/20 76/197/20 80/198/20 79/199/20
f 79/200/21 80/201/21 78/202/21 77/203/21
f 77/204/22 78/205/22 74/206/22 73/207/22
f 75/208/23 79/209/23 77/210/23 73/211/23
f 80/212/24 76/213/24 74/214/24 78/215/24
o Laserkugel
v -0.309490 -0.309490 4.337358
v -0.137777 -0.137777 3.989938
v -0.309490 0.309490 4.337358
v -0.137777 0.137777 3.989938
v -0.309490 -0.309490 3.718379
v -0.309490 0.309490 3.718379
v 0.309490 -0.309490 4.337358
v 0.137777 -0.137777 3.989938
v 0.309490 0.309490 4.337358
v 0.137777 0.137777 3.989938
v 0.309490 -0.309490 3.718379
v 0.309490 0.309490 3.718379
v -0.137777 -0.137777 3.718379
v 0.137777 0.137777 3.718379
v -0.137777 0.137777 3.718379
v 0.137777 -0.137777 3.718379
vn -1.0000 -0.0000 -0.0000
vn -0.0000 -0.0000 -1.0000
vn 1.0000 -0.0000 -0.0000
vn -0.0000 -0.0000 1.0000
vn -0.0000 -1.0000 -0.0000
vn -0.0000 1.0000 -0.0000
vt 0.333333 0.333333
vt 0.000000 0.333333
vt 0.000000 0.000000
vt 0.333333 0.000000
vt 0.092471 0.574196
vt 0.000000 0.666667
vt 0.000000 0.333333
vt 0.333333 0.333333
vt 0.240863 0.425804
vt 0.092471 0.425804
vt 0.333333 0.666667
vt 0.240863 0.574196
vt 0.666667 0.333333
vt 0.333333 0.333333
vt 0.333333 0.000000
vt 0.666667 0.000000
vt 0.666667 0.666667
vt 0.333333 0.666667
vt 0.333333 0.333333
vt 0.666667 0.333333
vt 0.333333 0.666667
vt 0.333333 1.000000
vt 0.000000 1.000000
vt 0.000000 0.666667
vt 0.666667 0.666667
vt 0.666667 1.000000
vt 0.333333 1.000000
vt 0.333333 0.666667
vt 0.666667 0.445175
vt 0.812907 0.445175
vt 0.812907 0.593567
vt 0.666667 0.593567
vt 0.812907 0.741958
vt 0.666667 0.741958
vt 0.666667 0.593567
vt 0.812907 0.593567
vt 0.815058 0.000000
vt 0.815058 0.148392
vt 0.666667 0.148392
vt 0.666667 0.000000
vt 0.812907 0.296783
vt 0.666667 0.296783
vt 0.666667 0.148392
vt 0.812907 0.148392
vt 0.666667 0.296783
vt 0.812907 0.296783
s 0
usemtl Laserkugel
f 81/216/25 83/217/25 86/218/25 85/219/25
f 95/220/26 86/221/26 92/222/26 91/223/26 96/224/26 94/225/26
f 96/224/26 91/223/26 85/226/26 86/221/26 95/220/26 93/227/26
f 91/228/27 92/229/27 89/230/27 87/231/27
f 87/232/28 89/233/28 83/234/28 81/235/28
f 85/236/29 91/237/29 87/238/29 81/239/29
f 92/240/30 86/241/30 83/242/30 89/243/30
f 95/244/27 84/245/27 82/246/27 93/247/27
f 96/248/25 88/249/25 90/250/25 94/251/25
f 88/252/26 82/253/26 84/254/26 90/255/26
f 93/256/30 82/257/30 88/258/30 96/259/30
f 90/244/29 84/260/29 95/261/29 94/245/29
o Großer_Ring.001
v -1.000000 -1.000000 2.219785
v -1.000000 1.000000 2.219785
v -1.000000 -1.000000 1.847258
v -1.000000 1.000000 1.847258
v 1.000000 -1.000000 2.219785
v 1.000000 1.000000 2.219785
v 1.000000 -1.000000 1.847258
v 1.000000 1.000000 1.847258
v -0.838642 0.838642 1.847258
v 0.838642 -0.838642 1.847258
v 0.838642 0.838642 1.847258
v -0.838642 -0.838642 1.847258
v 0.838642 -0.838642 2.219785
v -0.838642 -0.838642 2.219785
v -0.838642 0.838642 2.219785
v 0.838642 0.838642 2.219785
vn -1.0000 -0.0000 -0.0000
vn -0.0000 -0.0000 -1.0000
vn 1.0000 -0.0000 -0.0000
vn -0.0000 -0.0000 1.0000
vn -0.0000 -1.0000 -0.0000
vn -0.0000 1.0000 -0.0000
vt 0.284420 0.284420
vt 0.284420 0.000000
vt 0.568840 0.000000
vt 0.568840 0.284420
vt -0.000000 0.000000
vt 0.284420 0.000000
vt 0.284420 0.284420
vt 0.261473 0.261473
vt 0.261473 0.022947
vt 0.022947 0.022947
vt -0.000000 0.284420
vt 0.022947 0.261473
vt 0.284420 0.568840
vt 0.000000 0.568840
vt 0.000000 0.284420
vt 0.284420 0.284420
vt 0.307367 0.545893
vt 0.284420 0.568840
vt 0.284420 0.284420
vt 0.568840 0.284420
vt 0.568840 0.568840
vt 0.545893 0.545893
vt 0.545893 0.307367
vt 0.307367 0.307367
vt 0.853260 0.000000
vt 0.853260 0.284420
vt 0.568840 0.284420
vt 0.568840 0.000000
vt 0.284420 0.853260
vt -0.000000 0.853260
vt 0.000000 0.568840
vt 0.284420 0.568840
vt 0.522947 0.568840
vt 0.522947 0.853260
vt 0.284420 0.853260
vt 0.807367 0.284420
vt 0.807367 0.568840
vt 0.568840 0.568840
vt 0.761473 0.568840
vt 0.761473 0.853260
vt 0.522947 0.853260
vt 0.522947 0.568840
vt 1.000000 0.853260
vt 0.761473 0.853260
vt 0.761473 0.568840
vt 1.000000 0.568840
s 0
usemtl Großer_Ring
f 97/262/31 98/263/31 100/264/31 99/265/31
f 100/266/32 104/267/32 103/268/32 106/269/32 107/270/32 105/271/32
f 106/269/32 103/268/32 99/272/32 100/266/32 105/271/32 108/273/32
f 103/274/33 104/275/33 102/276/33 101/277/33
f 109/278/34 101/279/34 102/280/34 98/281/34 97/282/34 110/283/34 111/284/34 112/285/34
f 110/283/34 97/282/34 101/279/34 109/278/34
f 99/286/35 103/287/35 101/288/35 97/289/35
f 104/290/36 100/291/36 98/292/36 102/293/36
f 110/294/33 108/295/33 105/296/33 111/293/33
f 106/297/31 109/298/31 112/299/31 107/265/31
f 109/300/36 106/301/36 108/302/36 110/303/36
f 105/304/35 107/305/35 112/306/35 111/307/35
o Kleiner_Ring.001
v -0.713717 -0.713717 3.213399
v -0.713717 0.713717 3.213399
v -0.713717 -0.713717 2.854042
v -0.713717 0.713717 2.854042
v 0.713717 -0.713717 3.213399
v 0.713717 0.713717 3.213399
v 0.713717 -0.713717 2.854042
v 0.713717 0.713717 2.854042
v -0.587144 0.587144 2.854042
v 0.587144 -0.587144 2.854042
v 0.587144 0.587144 2.854042
v -0.587144 -0.587144 2.854042
v 0.587144 -0.587144 3.213399
v -0.587144 -0.587144 3.213399
v -0.587144 0.587144 3.213399
v 0.587144 0.587144 3.213399
vn -1.0000 -0.0000 -0.0000
vn -0.0000 -0.0000 -1.0000
vn 1.0000 -0.0000 -0.0000
vn -0.0000 -0.0000 1.0000
vn -0.0000 -1.0000 -0.0000
vn -0.0000 1.0000 -0.0000
vt -0.000000 0.576706
vt 0.000000 0.288353
vt 0.288353 0.288353
vt 0.288353 0.576706
vt -0.000000 0.288353
vt 0.000000 -0.000000
vt 0.288353 0.000000
vt 0.262784 0.025569
vt 0.025569 0.025569
vt 0.025569 0.262784
vt 0.288353 0.288353
vt 0.262784 0.262784
vt -0.000000 0.865060
vt 0.000000 0.576706
vt 0.288353 0.576706
vt 0.288353 0.865060
vt 0.602275 0.262784
vt 0.576706 0.288353
vt 0.576706 -0.000000
vt 0.865060 0.000000
vt 0.865060 0.288353
vt 0.839491 0.262784
vt 0.839491 0.025569
vt 0.602275 0.025569
vt 0.576706 0.000000
vt 0.576706 0.288353
vt 0.288353 0.000000
vt 0.576706 0.576706
vt 0.288353 0.576706
vt 0.288353 0.288353
vt 0.576706 0.288353
vt 0.762784 0.576706
vt 0.762784 0.865060
vt 0.525569 0.865060
vt 0.525569 0.576706
vt 1.000000 0.576706
vt 1.000000 0.865060
vt 0.762784 0.865060
vt 0.762784 0.576706
vt 0.525569 0.576706
vt 0.525569 0.865060
vt 0.288353 0.865060
vt 0.288353 0.576706
vt 0.813922 0.576706
vt 0.576706 0.576706
vt 0.813922 0.288353
s 0
usemtl Kleiner_Ring
f 113/308/37 114/309/37 116/310/37 115/311/37
f 116/312/38 120/313/38 119/314/38 122/315/38 123/316/38 121/317/38
f 122/315/38 119/314/38 115/318/38 116/312/38 121/317/38 124/319/38
f 119/320/39 120/321/39 118/322/39 117/323/39
f 125/324/40 117/325/40 118/326/40 114/327/40 113/328/40 126/329/40 127/330/40 128/331/40
f 126/329/40 113/328/40 117/325/40 125/324/40
f 115/332/41 119/333/41 117/318/41 113/334/41
f 120/335/42 116/336/42 114/337/42 118/338/42
f 126/339/39 124/340/39 121/341/39 127/342/39
f 122/343/37 125/344/37 128/345/37 123/346/37
f 125/347/42 122/348/42 124/349/42 126/350/42
f 121/351/41 123/352/41 128/333/41 127/353/41
